<svg version="1.1" xmlns="http://www.w3.org/2000/svg" xmlns:xlink="http://www.w3.org/1999/xlink" width="1200" height="1200"><defs/><g><path fill="none" stroke="#0000ff" paint-order="fill stroke markers" d=" M 0.5 1160.3149606299212 L 0.5 1205.6692913385828 M 14.673228346456694 1174.4881889763778 L 0.5 1182.992125984252 L 14.673228346456694 1191.496062992126 M 0.5 1182.992125984252 L 43.01968503937008 1182.992125984252" stroke-miterlimit="10" stroke-dasharray=""/><path fill="none" stroke="#0000ff" paint-order="fill stroke markers" d=" M 850.8937007874017 1160.3149606299212 L 850.8937007874017 1205.6692913385828 M 836.7204724409451 1174.4881889763778 L 850.8937007874017 1182.992125984252 L 836.7204724409451 1191.496062992126 M 850.8937007874017 1182.992125984252 L 808.3740157480316 1182.992125984252" stroke-miterlimit="10" stroke-dasharray=""/><path fill="none" stroke="#000000" paint-order="fill stroke markers" d=" M 614.1732283464567 600 A 14.173228346456694 14.173228346456694 0 1 1 614.1732212598431 599.9858267740158" stroke-miterlimit="10" stroke-dasharray=""/><path fill="none" stroke="#000000" paint-order="fill stroke markers" d=" M 639.9523132994034 599.0124742213549 L 638.4994512065932 589.2783022832982 L 639.8648162022195 588.8980622981225 L 641.2301811978458 588.5178223129467 L 642.595546193472 588.1375823277709 L 643.9609111890983 587.7573423425952 L 645.3262761847246 587.3771023574193 L 646.6916411803509 586.9968623722435 L 648.0570061759772 586.6166223870678 L 649.4123031004627 586.2002810203 L 650.6958686693023 585.530316099057 L 651.9308438969604 584.70023453674 L 653.1243127297403 583.7466035899546 L 654.2775996614397 582.6853990030056 L 655.3902243037568 581.5261907790876 L 656.4608700023998 580.2756068530106 L 657.4877632244338 578.9386808384353 L 658.4688579815917 577.5194995903896 L 659.4019383767342 576.0215566722089 L 660.2846813272777 574.4479627497022 L 661.114697847645 572.8015789349289 L 661.8895618842848 571.085105389814 L 653.9837085360126 558.1413304888256 L 652.102807358683 558.0469564061698 L 650.2590801254229 558.0336530620266 L 648.4560368345358 558.1004949715689 L 646.6973137515255 558.2466631186247 L 644.9867390709385 558.4715110660507 L 643.3284326986618 558.7746625687256 L 641.7269647936458 559.1561634434155 L 640.1876234139012 559.6167341955224 L 638.7169064253629 560.1582297742807 L 637.3235473231018 560.784592488393 L 636.0211544848673 561.5042952797891 L 634.8390261609151 562.3403372589482 L 633.8497864143819 563.3560018744001 L 632.8880678813885 564.3971077676237 L 631.9263493483949 565.4382136608472 L 630.9646308154013 566.4793195540707 L 630.0029122824077 567.5204254472942 L 629.0411937494142 568.5615313405177 L 628.0794752164206 569.6026372337413 L 627.117756683427 570.6437431269649 L 619.120934238503 564.9065188534391 M 619.120934238503 564.9065188534391 L 609.9644630089352 561.29764836498 L 610.3178480200515 559.9250876007417 L 610.6712330311678 558.5525268365034 L 611.0246180422841 557.1799660722651 L 611.3780030534004 555.8074053080268 L 611.7313880645168 554.4348445437886 L 612.084773075633 553.0622837795503 L 612.4381580867494 551.689723015312 L 612.7552443487249 550.3078307656527 L 612.8168204917038 548.8612479149931 L 612.7154363853533 547.3766872136383 L 612.4863021759919 545.8662974124331 L 612.1439155109314 544.3369193382545 L 611.696324061901 542.7937540211722 L 611.1486094616754 541.2412556846563 L 610.5042441810898 539.6834770601132 L 609.7657445462868 538.1242334528719 L 608.9350281232945 536.5671906678149 L 608.0136272864347 535.0159158863793 L 607.0028253386452 533.4739085867938 L 605.9037476619715 531.9446198740272 L 590.7411831027122 532.319402261731 L 589.7190021610085 533.9011234219787 L 588.7856175103952 535.4911863715595 L 587.9419826566527 537.0860886203619 L 587.189206443722 538.6822715619988 L 586.5286431378881 540.2760966641706 L 585.9620268542617 541.8638078611574 L 585.4916823508012 543.4414701875914 L 585.1208776324936 545.0048643036005 L 584.8544680654661 546.5492903668311 L 584.70023453674 548.0691561030396 L 584.6723190181465 549.5569127823557 L 584.8052884487524 550.998686931011 L 585.1902599341922 552.363225989668 L 585.6110248192566 553.7166516171424 L 586.0317897043211 555.0700772446169 L 586.4525545893856 556.4235028720914 L 586.8733194744501 557.7769284995659 L 587.2940843595146 559.1303541270404 L 587.714849244579 560.4837797545149 L 588.1356141296435 561.8372053819893 L 579.1686209390996 565.8940446320843 M 579.1686209390996 565.8940446320843 L 571.4650118023421 572.0193460816818 L 570.4530318178321 571.0270253026192 L 569.4410518333221 570.0347045235567 L 568.4290718488121 569.0423837444943 L 567.4170918643022 568.0500629654317 L 566.4051118797921 567.0577421863692 L 565.3931318952822 566.0654214073068 L 564.3811519107721 565.0731006282442 L 563.3429412482623 564.1075497453527 L 562.1209518224015 563.3309318159362 L 560.784592488393 562.6764526768982 L 559.3619894462518 562.1196938224787 L 557.8663158494917 561.6515203352487 L 556.3060997581442 561.2675632420846 L 554.6877394592756 560.9656488316457 L 553.0164809566561 560.7447962216779 L 551.2968865646951 560.6047338624822 L 549.5330897465603 560.545633995606 L 547.728945959157 560.567953136677 L 545.8881274910002 560.6723296518649 L 544.0141857776867 560.8595144842133 L 536.7574745666996 574.1780717729054 L 537.6161948023256 575.8541670158089 L 538.5265373849724 577.4575333095329 L 539.485945822117 578.985593648793 L 540.4918926921965 580.4356084433741 L 541.5419040669497 581.80458559812 L 542.6335941556 583.0891452924318 L 543.7647175571553 584.2853067441761 L 544.9332542185924 585.388130108078 L 546.1375616401032 586.3910605925504 L 547.3766872136383 587.2845636146467 L 548.6511645332791 588.0526175025666 L 549.9662622878374 588.6583496720627 L 551.3404735198102 589.0072241152677 L 552.7229569378683 589.3195438495187 L 554.1054403559262 589.6318635837697 L 555.4879237739843 589.9441833180207 L 556.8704071920423 590.2565030522716 L 558.2528906101004 590.5688227865226 L 559.6353740281585 590.8811425207736 L 561.0178574462165 591.1934622550245 L 560.0476867005966 600.9875257786451 M 560.0476867005966 600.9875257786451 L 561.5005487934068 610.7216977167018 L 560.1351837977805 611.1019377018775 L 558.7698188021542 611.4821776870533 L 557.404453806528 611.8624176722291 L 556.0390888109017 612.2426576574048 L 554.6737238152754 612.6228976425807 L 553.3083588196491 613.0031376277565 L 551.9429938240228 613.3833776129322 L 550.5876968995373 613.7997189797 L 549.3041313306977 614.469683900943 L 548.0691561030396 615.29976546326 L 546.8756872702597 616.2533964100454 L 545.7224003385603 617.3146009969943 L 544.6097756962432 618.4738092209124 L 543.5391299976002 619.7243931469894 L 542.5122367755662 621.0613191615647 L 541.5311420184083 622.4805004096104 L 540.5980616232657 623.9784433277911 L 539.7153186727223 625.5520372502978 L 538.885302152355 627.1984210650711 L 538.1104381157152 628.914894610186 L 546.0162914639874 641.8586695111744 L 547.897192641317 641.9530435938302 L 549.7409198745771 641.9663469379733 L 551.5439631654642 641.8995050284311 L 553.3026862484745 641.7533368813753 L 555.0132609290615 641.5284889339493 L 556.6715673013382 641.2253374312744 L 558.273035206354 640.8438365565845 L 559.8123765860988 640.3832658044776 L 561.2830935746371 639.8417702257193 L 562.6764526768982 639.215407511607 L 563.9788455151327 638.4957047202109 L 565.1609738390849 637.6596627410518 L 566.150213585618 636.6439981255999 L 567.1119321186115 635.6028922323763 L 568.0736506516051 634.5617863391528 L 569.0353691845987 633.5206804459293 L 569.9970877175923 632.4795745527058 L 570.9588062505858 631.4384686594822 L 571.9205247835794 630.3973627662587 L 572.882243316573 629.3562568730351 L 580.879065761497 635.0934811465609 M 580.8790657614969 635.0934811465609 L 590.0355369910648 638.70235163502 L 589.6821519799485 640.0749123992583 L 589.3287669688322 641.4474731634966 L 588.9753819577159 642.8200339277349 L 588.6219969465996 644.1925946919732 L 588.2686119354832 645.5651554562114 L 587.915226924367 646.9377162204497 L 587.5618419132506 648.310276984688 L 587.244755651275 649.6921692343473 L 587.1831795082962 651.1387520850069 L 587.2845636146467 652.6233127863617 L 587.513697824008 654.1337025875669 L 587.8560844890686 655.6630806617455 L 588.3036759380989 657.2062459788277 L 588.8513905383246 658.7587443153437 L 589.4957558189101 660.3165229398868 L 590.2342554537132 661.8757665471281 L 591.0649718767054 663.4328093321851 L 591.9863727135653 664.9840841136207 L 592.9971746613548 666.5260914132062 L 594.0962523380284 668.0553801259728 L 609.2588168972878 667.680597738269 L 610.2809978389914 666.0988765780213 L 611.2143824896048 664.5088136284405 L 612.0580173433473 662.9139113796381 L 612.810793556278 661.3177284380012 L 613.4713568621119 659.7239033358294 L 614.0379731457382 658.1361921388426 L 614.5083176491988 656.5585298124086 L 614.8791223675064 654.9951356963995 L 615.1455319345339 653.4507096331689 L 615.2997654632599 651.9308438969604 L 615.3276809818535 650.4430872176443 L 615.1947115512476 649.001313068989 L 614.8097400658078 647.6367740103321 L 614.3889751807433 646.2833483828576 L 613.9682102956789 644.9299227553831 L 613.5474454106144 643.5764971279086 L 613.1266805255499 642.2230715004341 L 612.7059156404854 640.8696458729596 L 612.2851507554209 639.5162202454851 L 611.8643858703565 638.1627946180107 L 620.8313790609004 634.1059553679157 M 620.8313790609004 634.1059553679157 L 628.5349881976579 627.9806539183184 L 629.5469681821679 628.9729746973808 L 630.5589481666779 629.9652954764433 L 631.5709281511879 630.9576162555059 L 632.5829081356978 631.9499370345683 L 633.5948881202079 632.9422578136308 L 634.6068681047178 633.9345785926932 L 635.6188480892279 634.9268993717558 L 636.6570587517377 635.8924502546473 L 637.8790481775985 636.6690681840638 L 639.215407511607 637.3235473231018 L 640.6380105537482 637.8803061775213 L 642.1336841505082 638.3484796647513 L 643.6939002418557 638.7324367579155 L 645.3122605407244 639.0343511683544 L 646.9835190433439 639.2552037783222 L 648.7031134353049 639.3952661375178 L 650.4669102534397 639.454366004394 L 652.271054040843 639.432046863323 L 654.1118725089998 639.3276703481353 L 655.9858142223133 639.1404855157867 L 663.2425254333004 625.8219282270946 L 662.3838051976744 624.1458329841912 L 661.4734626150276 622.5424666904671 L 660.514054177883 621.014406351207 L 659.5081073078035 619.5643915566259 L 658.4580959330503 618.19541440188 L 657.3664058444 616.9108547075682 L 656.2352824428447 615.714693255824 L 655.0667457814076 614.611869891922 L 653.8624383598968 613.6089394074497 L 652.6233127863617 612.7154363853533 L 651.3488354667209 611.9473824974335 L 650.0337377121626 611.3416503279373 L 648.6595264801898 610.9927758847323 L 647.2770430621317 610.6804561504813 L 645.8945596440738 610.3681364162303 L 644.5120762260157 610.0558166819794 L 643.1295928079576 609.7434969477284 L 641.7471093898996 609.4311772134774 L 640.3646259718415 609.1188574792264 L 638.9821425537835 608.8065377449756 L 639.9523132994034 599.0124742213549" stroke-miterlimit="10" stroke-dasharray=""/></g></svg>
