<svg version="1.1" xmlns="http://www.w3.org/2000/svg" xmlns:xlink="http://www.w3.org/1999/xlink" width="1200" height="1200"><defs/><g><path fill="none" stroke="#0000ff" paint-order="fill stroke markers" d=" M 0.5 1160.3149606299212 L 0.5 1205.6692913385828 M 14.673228346456694 1174.4881889763778 L 0.5 1182.992125984252 L 14.673228346456694 1191.496062992126 M 0.5 1182.992125984252 L 43.01968503937008 1182.992125984252" stroke-miterlimit="10" stroke-dasharray=""/><path fill="none" stroke="#0000ff" paint-order="fill stroke markers" d=" M 850.8937007874017 1160.3149606299212 L 850.8937007874017 1205.6692913385828 M 836.7204724409451 1174.4881889763778 L 850.8937007874017 1182.992125984252 L 836.7204724409451 1191.496062992126 M 850.8937007874017 1182.992125984252 L 808.3740157480316 1182.992125984252" stroke-miterlimit="10" stroke-dasharray=""/><path fill="none" stroke="#000000" paint-order="fill stroke markers" d=" M 622.6771653543307 600 A 22.67716535433071 22.67716535433071 0 1 1 622.677154015749 599.9773228384252" stroke-miterlimit="10" stroke-dasharray=""/><path fill="none" stroke="#000000" paint-order="fill stroke markers" d=" M 659.9284699491052 598.5187113320322 L 657.7491768098898 583.9174534249473 L 659.7972243033292 583.3470934471837 L 661.8452717967687 582.77673346942 L 663.8933192902081 582.2063734916563 L 665.9413667836475 581.6360135138926 L 667.9894142770869 581.0656535361289 L 670.0374617705263 580.4952935583653 L 672.0855092639657 579.9249335806016 L 674.118454650694 579.3004215304501 L 676.0438030039534 578.2954741485854 L 677.8962658454406 577.05035180511 L 679.6864690946104 575.6199053849318 L 681.4163994921595 574.0280985045085 L 683.0853364556351 572.2892861686314 L 684.6913050035997 570.4134102795159 L 686.2316448366506 568.4080212576529 L 687.7032869723874 566.2792493855844 L 689.1029075651013 564.0323350083133 L 690.4270219909165 561.6719441245533 L 691.6720467714675 559.2023684023934 L 692.8343428264272 556.6276580847209 L 680.975562804019 537.2119957332384 L 678.1542110380244 537.0704346092547 L 675.3886201881343 537.05047959304 L 672.6840552518037 537.1507424573533 L 670.0459706272883 537.369994677937 L 667.4801086064077 537.707266599076 L 664.9926490479927 538.1619938530883 L 662.5904471904688 538.7342451651232 L 660.2814351208518 539.4251012932837 L 658.0753596380443 540.237344661421 L 655.9853209846526 541.1768887325893 L 654.031731727301 542.2564429196835 L 652.2585392413727 543.5105058884224 L 650.774679621573 545.0340028116002 L 649.3321018220827 546.5956616514355 L 647.8895240225922 548.1573204912708 L 646.4469462231019 549.7189793311061 L 645.0043684236116 551.2806381709414 L 643.5617906241213 552.8422970107766 L 642.119212824631 554.403955850612 L 640.6766350251406 555.9656146904472 L 628.6814013577546 547.3597782801587 M 628.6814013577545 547.3597782801587 L 614.9466945134029 541.94647254747 L 615.4767720300773 539.8876314011125 L 616.0068495467518 537.8287902547551 L 616.5369270634262 535.7699491083977 L 617.0670045801006 533.7111079620403 L 617.5970820967751 531.6522668156828 L 618.1271596134495 529.5934256693254 L 618.657237130124 527.534584522968 L 619.1328665230874 525.461746148479 L 619.2252307375556 523.2918718724898 L 619.0731545780299 521.0650308204574 L 618.7294532639879 518.7994461186497 L 618.215873266397 516.5053790073816 L 617.5444860928516 514.1906310317584 L 616.7229141925131 511.8618835269844 L 615.7563662716348 509.52521559016975 L 614.6486168194301 507.18635017930785 L 613.4025421849418 504.8507860017223 L 612.020440929652 502.5238738295689 L 610.5042380079677 500.21086288019063 L 608.8556214929573 497.91692981104086 L 586.1117746540682 498.4791033925965 L 584.5785032415127 500.851685132968 L 583.1784262655929 503.2367795573393 L 581.9129739849791 505.6291329305429 L 580.783809665583 508.02340734299827 L 579.7929647068322 510.414144996256 L 578.9430402813927 512.795711791736 L 578.2375235262018 515.1622052813873 L 577.6813164487404 517.5072964554007 L 577.2817020981992 519.8239355502467 L 577.05035180511 522.1037341545594 L 577.0084785272197 524.3353691735334 L 577.2079326731285 526.4980303965165 L 577.7853899012882 528.5448389845019 L 578.416537228885 530.5749774257135 L 579.0476845564817 532.6051158669253 L 579.6788318840784 534.6352543081371 L 580.3099792116751 536.6653927493488 L 580.9411265392719 538.6955311905605 L 581.5722738668686 540.7256696317722 L 582.2034211944652 542.755808072984 L 568.7529314086494 548.8410669481265 M 568.7529314086494 548.8410669481265 L 557.1975177035131 558.0290191225225 L 555.6795477267481 556.5405379539288 L 554.1615777499832 555.052056785335 L 552.6436077732182 553.5635756167413 L 551.1256377964531 552.0750944481475 L 549.6076678196882 550.5866132795538 L 548.0896978429232 549.09813211096 L 546.5717278661582 547.6096509423663 L 545.0144118723933 546.161324618029 L 543.1814277336023 544.9963977239042 L 541.1768887325894 544.0146790153473 L 539.0429841693775 543.179540733718 L 536.7994737742376 542.4772805028731 L 534.4591496372165 541.9013448631268 L 532.0316091889133 541.4484732474685 L 529.5247214349841 541.1171943325169 L 526.9453298470427 540.9071007937234 L 524.2996346198405 540.8184509934089 L 521.5934189387356 540.8519297050156 L 518.8321912365002 541.0084944777972 L 516.0212786665302 541.28927172632 L 505.1362118500493 561.2671076593581 L 506.42429220348833 563.7812505237133 L 507.7898060774585 566.1862999642992 L 509.2289187331753 568.4783904731896 L 510.73783903829474 570.6534126650612 L 512.3128561004246 572.70687839718 L 513.9503912334 574.6337179386476 L 515.647076335733 576.427960116264 L 517.3998813278886 578.082195162117 L 519.2063424601547 579.5865908888255 L 521.0650308204574 580.92684542197 L 522.9767467999187 582.0789262538499 L 524.949393431756 582.9875245080941 L 527.0107102797153 583.5108361729016 L 529.0844354068023 583.9793157742781 L 531.1581605338894 584.4477953756546 L 533.2318856609764 584.916274977031 L 535.3056107880635 585.3847545784074 L 537.3793359151506 585.8532341797838 L 539.4530610422377 586.3217137811603 L 541.5267861693247 586.7901933825367 L 540.0715300508948 601.4812886679678 M 540.0715300508948 601.4812886679678 L 542.2508231901102 616.0825465750527 L 540.2027756966708 616.6529065528163 L 538.1547282032313 617.22326653058 L 536.1066807097919 617.7936265083437 L 534.0586332163525 618.3639864861074 L 532.0105857229131 618.934346463871 L 529.9625382294737 619.5047064416347 L 527.9144907360342 620.0750664193984 L 525.881545349306 620.6995784695499 L 523.9561969960466 621.7045258514146 L 522.1037341545594 622.94964819489 L 520.3135309053896 624.3800946150682 L 518.5836005078405 625.9719014954915 L 516.9146635443649 627.7107138313686 L 515.3086949964002 629.5865897204841 L 513.7683551633494 631.5919787423471 L 512.2967130276124 633.7207506144156 L 510.8970924348987 635.9676649916867 L 509.5729780090835 638.3280558754467 L 508.32795322853246 640.7976315976066 L 507.1656571735728 643.3723419152791 L 519.024437195981 662.7880042667616 L 521.8457889619756 662.9295653907453 L 524.6113798118656 662.94952040696 L 527.3159447481962 662.8492575426467 L 529.9540293727117 662.630005322063 L 532.5198913935923 662.292733400924 L 535.0073509520073 661.8380061469115 L 537.4095528095312 661.2657548348768 L 539.7185648791482 660.5748987067163 L 541.9246403619555 659.762655338579 L 544.0146790153474 658.8231112674107 L 545.968268272699 657.7435570803165 L 547.7414607586273 656.4894941115776 L 549.225320378427 654.9659971883998 L 550.6678981779173 653.4043383485645 L 552.1104759774076 651.8426795087291 L 553.5530537768981 650.2810206688939 L 554.9956315763884 648.7193618290586 L 556.4382093758787 647.1577029892234 L 557.880787175369 645.596044149388 L 559.3233649748594 644.0343853095528 L 571.3185986422455 652.6402217198413 M 571.3185986422454 652.6402217198413 L 585.0533054865971 658.05352745253 L 584.5232279699226 660.1123685988875 L 583.9931504532482 662.1712097452449 L 583.4630729365738 664.2300508916023 L 582.9329954198993 666.2888920379597 L 582.4029179032249 668.3477331843171 L 581.8728403865504 670.4065743306746 L 581.342762869876 672.465415477032 L 580.8671334769126 674.538253851521 L 580.7747692624444 676.7081281275102 L 580.92684542197 678.9349691795426 L 581.2705467360121 681.2005538813503 L 581.7841267336029 683.4946209926184 L 582.4555139071484 685.8093689682416 L 583.2770858074869 688.1381164730155 L 584.2436337283651 690.4747844098302 L 585.3513831805699 692.8136498206921 L 586.5974578150581 695.1492139982777 L 587.9795590703479 697.476126170431 L 589.4957619920323 699.7891371198094 L 591.1443785070427 702.0830701889591 L 613.8882253459317 701.5208966074035 L 615.4214967584873 699.148314867032 L 616.8215737344071 696.7632204426608 L 618.0870260150209 694.3708670694572 L 619.216190334417 691.9765926570017 L 620.2070352931678 689.585855003744 L 621.0569597186073 687.204288208264 L 621.7624764737982 684.8377947186128 L 622.3186835512596 682.4927035445994 L 622.7182979018008 680.1760644497533 L 622.9496481948898 677.8962658454406 L 622.9915214727803 675.6646308264666 L 622.7920673268713 673.5019696034835 L 622.2146100987117 671.4551610154981 L 621.583462771115 669.4250225742865 L 620.9523154435183 667.3948841330747 L 620.3211681159215 665.3647456918629 L 619.6900207883248 663.3346072506512 L 619.0588734607281 661.3044688094395 L 618.4277261331314 659.2743303682278 L 617.7965788055346 657.244191927016 L 631.2470685913506 651.1589330518735 M 631.2470685913506 651.1589330518735 L 642.8024822964869 641.9709808774775 L 644.3204522732518 643.4594620460712 L 645.8384222500168 644.947943214665 L 647.3563922267818 646.4364243832587 L 648.8743622035468 647.9249055518525 L 650.3923321803118 649.4133867204462 L 651.9103021570768 650.90186788904 L 653.4282721338417 652.3903490576337 L 654.9855881276067 653.838675381971 L 656.8185722663977 655.0036022760958 L 658.8231112674106 655.9853209846527 L 660.9570158306224 656.8204592662821 L 663.2005262257624 657.5227194971269 L 665.5408503627835 658.0986551368732 L 667.9683908110866 658.5515267525316 L 670.4752785650159 658.8828056674832 L 673.0546701529573 659.0928992062767 L 675.7003653801594 659.1815490065911 L 678.4065810612644 659.1480702949846 L 681.1678087634997 658.9915055222028 L 683.9787213334698 658.7107282736802 L 694.8637881499507 638.7328923406419 L 693.5757077965117 636.2187494762867 L 692.2101939225415 633.8137000357008 L 690.7710812668246 631.5216095268105 L 689.2621609617053 629.3465873349388 L 687.6871438995754 627.2931216028201 L 686.0496087666 625.3662820613524 L 684.352923664267 623.572039883736 L 682.6001186721114 621.9178048378831 L 680.7936575398452 620.4134091111745 L 678.9349691795426 619.07315457803 L 677.0232532000813 617.9210737461502 L 675.050606568244 617.0124754919059 L 672.9892897202847 616.4891638270984 L 670.9155645931976 616.020684225722 L 668.8418394661106 615.5522046243456 L 666.7681143390236 615.0837250229691 L 664.6943892119365 614.6152454215926 L 662.6206640848494 614.1467658202162 L 660.5469389577623 613.6782862188397 L 658.4732138306753 613.2098066174633 L 659.9284699491052 598.5187113320322" stroke-miterlimit="10" stroke-dasharray=""/></g></svg>
